<svg width="46" height="46" xmlns="http://www.w3.org/2000/svg">

 <g>
  <title>background</title>
  <rect fill="none" id="canvas_background" height="402" width="582" y="-1" x="-1"/>
 </g>
 <g>
  <title>Layer 1</title>
  <path stroke-width="0" id="svg_1" fill="#000000" d="m22.9999,7.66675c-8.4547,0 -15.3334,6.87875 -15.3334,15.33335c0,8.4547 6.8787,15.3334 15.3334,15.3334c8.4546,0 15.3333,-6.8787 15.3333,-15.3334c0,-8.4546 -6.8787,-15.33335 -15.3333,-15.33335zm7.8445,5.72755c0.1722,-0.1918 0.4155,-0.3051 0.6738,-0.3154c0.2227,-0.0252 0.5092,0.0833 0.6963,0.2611c1.9878,1.8821 3.3392,4.2779 3.9044,6.9283c0.0899,0.423 -0.1142,0.8535 -0.4979,1.0519c-0.9378,0.4848 -2.0514,0.7197 -3.1183,0.7197c-1.3907,0 -2.7084,-0.3988 -3.4721,-1.1624c-1.6246,-1.6237 -0.9471,-4.421 1.8138,-7.4832zm-15.689,19.3613c-0.1722,0.1918 -0.4155,0.306 -0.6738,0.3164c-0.0112,0.0009 -0.0243,0.0009 -0.0375,0.0009c-0.2451,0 -0.481,-0.0937 -0.6588,-0.2621c-1.9878,-1.8821 -3.3392,-4.2779 -3.90442,-6.9292c-0.08984,-0.423 0.11419,-0.8535 0.49792,-1.0519c2.16,-1.1146 5.2409,-0.9069 6.5904,0.4426c1.6228,1.6239 0.9452,4.4212 -1.8138,7.4833zm1.8137,-11.878c-0.7637,0.7636 -2.0814,1.1624 -3.4721,1.1624c-1.0669,0 -2.1787,-0.235 -3.1183,-0.7197c-0.38372,-0.1984 -0.58775,-0.6289 -0.49791,-1.0519c0.56531,-2.6504 1.91661,-5.0462 3.90441,-6.9283c0.1872,-0.1778 0.4624,-0.2882 0.6963,-0.2611c0.2583,0.0104 0.5016,0.1236 0.6738,0.3154c2.7609,3.0621 3.4385,5.8594 1.8138,7.4832zm10.1149,14.9019c-1.3271,0.423 -2.701,0.6373 -4.0841,0.6373c-1.3832,0 -2.7572,-0.2142 -4.0841,-0.6373c-0.4212,-0.1348 -0.6963,-0.5391 -0.6664,-0.9798c0.2396,-3.4488 2.2816,-6.0496 4.7505,-6.0496c2.4688,0 4.5108,2.6008 4.7505,6.0495c0.0299,0.4408 -0.2452,0.8451 -0.6664,0.9799zm-7.9175,-12.7794c0,-2.1141 1.7202,-3.8334 3.8334,-3.8334c2.1132,0 3.8333,1.7192 3.8333,3.8334c0,2.1142 -1.7201,3.8334 -3.8333,3.8334c-2.1132,0 -3.8334,-1.7193 -3.8334,-3.8334zm8.5839,-11.7237c-0.2397,3.4478 -2.2817,6.0486 -4.7505,6.0486c-2.4689,0 -4.5109,-2.6008 -4.7505,-6.0486c-0.0299,-0.4408 0.2433,-0.8451 0.6645,-0.9789c2.6541,-0.84798 5.5179,-0.84798 8.172,0c0.4212,0.1338 0.6944,0.5381 0.6645,0.9789zm8.3685,14.4527c-0.5653,2.6513 -1.9166,5.0472 -3.9044,6.9292c-0.1778,0.1685 -0.4136,0.2621 -0.6588,0.2621c-0.0131,0 -0.0262,0 -0.0375,-0.0009c-0.2583,-0.0103 -0.5016,-0.1235 -0.6738,-0.3154c-2.7608,-3.0621 -3.4384,-5.8604 -1.8138,-7.4841c1.3496,-1.3505 4.4286,-1.5555 6.5904,-0.4427c0.3837,0.1983 0.5878,0.6288 0.4979,1.0518z"/>
  <path id="svg_2" fill="#000000" d="m23,0c-12.683,0 -23,10.318 -23,23c0,12.682 10.317,23 23,23c12.683,0 23,-10.318 23,-23c0,-12.682 -10.317,-23 -23,-23zm0,40.25c-9.5122,0 -17.25,-7.7387 -17.25,-17.25c0,-9.5113 7.7378,-17.25 17.25,-17.25c9.5122,0 17.25,7.7387 17.25,17.25c0,9.5113 -7.7378,17.25 -17.25,17.25z"/>
 </g>
</svg>